<?xml version="1.0" encoding="iso-8859-1"?>
<!-- Uploaded to: SVG Repo, www.svgrepo.com, Generator: SVG Repo Mixer Tools -->
<svg  version="1.1" id="Layer_1" xmlns="http://www.w3.org/2000/svg" xmlns:xlink="http://www.w3.org/1999/xlink" 
	 viewBox="0 0 512.001 512.001" xml:space="preserve">
<path style="fill:#ff4080;" d="M208.078,330.407c-10.835-16.443-18.525-34.599-17.252-58.455
	c2.26-42.227,36.79-77.104,79.077-77.104c43.473,0,74.265,46.389,74.265,46.389s26.235-37.25,61.636-44.975
	c1.657-8.6,2.364-17.79,1.829-27.781c-2.897-54.126-47.159-98.831-101.364-98.831c-53.327,0-95.167,59.46-95.167,59.46
	s-39.466-59.46-95.19-59.46c-54.201,0-98.461,44.705-101.358,98.831c-1.631,30.578,8.226,53.85,22.114,74.926
	c27.753,42.11,149.087,143.488,174.611,143.488c6.444,0,18.655-6.186,33.802-16.13C228.642,355.351,214.82,340.636,208.078,330.407z
	"/>
<path d="M125.45,282.152c-7.934,0-14.376-6.433-14.376-14.368s6.426-14.368,14.361-14.368h0.014c7.936,0,14.368,6.433,14.368,14.368
	S133.384,282.152,125.45,282.152z M95.228,252.693c-3.816,0-7.624-1.51-10.45-4.503c-9.013-9.546-16.415-18.308-19.795-23.439
	c-12.797-19.422-17.596-35.197-16.568-54.455c1.384-25.865,16.44-48.899,39.295-60.118c8.949-4.392,18.438-6.62,28.202-6.62
	c7.936,0,14.368,6.433,14.368,14.368s-6.433,14.368-14.368,14.368c-5.338,0-10.567,1.237-15.539,3.68
	c-13.315,6.535-22.445,20.609-23.26,35.854c-0.687,12.877,2.529,22.935,11.868,37.109c2,3.035,7.939,10.25,16.695,19.522
	c5.449,5.77,5.187,14.864-0.583,20.313C102.314,251.392,98.767,252.693,95.228,252.693z"/>
<path style="fill: #ff8000;" d="M418.411,194.847c-41.604,0-74.246,46.389-74.246,46.389s-30.79-46.389-74.265-46.389
	c-42.285,0-76.817,34.877-79.077,77.104c-1.273,23.856,6.418,42.012,17.252,58.455c21.652,32.852,116.313,111.945,136.227,111.945
	c20.324,0,114.143-78.804,135.939-111.945c10.858-16.518,18.527-34.599,17.249-58.455
	C495.232,229.723,460.7,194.847,418.411,194.847"/>
<path d="M511.841,271.183c-1.292-24.151-11.518-46.828-28.792-63.853c-16.685-16.445-38.229-25.856-61.008-26.763
	c0.182-4.25,0.17-8.542-0.062-12.857c-1.604-29.945-14.282-58.064-35.704-79.177c-21.755-21.443-50.17-33.253-80.008-33.253
	c-42.534,0-77.473,31.5-94.931,50.86c-16.991-19.475-51.228-50.86-95.425-50.86c-29.836,0-58.25,11.809-80.005,33.253
	c-21.418,21.114-34.096,49.232-35.7,79.18c-1.586,29.731,5.959,55.514,24.465,83.599c16.499,25.036,59.322,64.506,90.978,90.698
	c19.63,16.242,38.154,30.204,53.567,40.377c25.349,16.729,35.795,18.874,42.062,18.874c5.428,0,13.933-1.569,32.147-12.483
	c8.202,7.421,16.514,14.584,24.258,20.992c15.4,12.743,29.947,23.705,42.065,31.703c20.359,13.436,28.892,15.248,34.556,15.248
	c13.374,0,39.145-15.765,76.597-46.857c25.86-21.469,58.184-51.544,71.349-71.564C502.232,323.114,513.479,301.761,511.841,271.183z
	 M132.127,318.342c-38.222-31.8-71.763-65.093-83.461-82.843c-15.107-22.928-21.018-42.742-19.764-66.252
	c2.514-46.996,41.548-85.229,87.01-85.229c47.186,0,82.877,52.528,83.218,53.037c2.619,3.947,7.023,6.341,11.761,6.411
	c4.747,0.04,9.212-2.206,11.949-6.072c0.378-0.535,38.325-53.377,83.428-53.377c45.465,0,84.5,38.234,87.015,85.231
	c0.29,5.423,0.181,10.64-0.339,15.772c-1.283,0.454-2.55,0.937-3.805,1.444c-0.068,0.027-0.134,0.056-0.201,0.083
	c-1.187,0.484-2.358,0.99-3.516,1.517c-0.066,0.03-0.132,0.059-0.197,0.089c-2.437,1.116-4.809,2.326-7.115,3.606
	c-0.042,0.023-0.085,0.046-0.126,0.07c-14.093,7.852-25.648,18.361-33.598,26.803c-0.312-0.342-0.638-0.69-0.961-1.037
	c-0.139-0.149-0.272-0.295-0.412-0.445c-0.264-0.283-0.542-0.57-0.815-0.856c-0.211-0.221-0.417-0.441-0.632-0.665
	c-0.207-0.216-0.425-0.435-0.638-0.652c-0.293-0.3-0.581-0.598-0.881-0.901c-0.128-0.129-0.263-0.26-0.391-0.389
	c-0.394-0.394-0.786-0.787-1.193-1.185c-0.214-0.21-0.438-0.422-0.657-0.634c-0.33-0.319-0.657-0.638-0.994-0.958
	c-0.134-0.128-0.274-0.256-0.41-0.384c-11.776-11.1-28.323-23.064-48.327-27.872c-0.135-0.033-0.273-0.059-0.41-0.091
	c-1.796-0.422-3.617-0.792-5.466-1.092c-0.381-0.062-0.769-0.108-1.151-0.164c-0.618-0.091-1.233-0.188-1.858-0.264
	c-0.139-0.017-0.283-0.027-0.422-0.043c-0.872-0.102-1.746-0.197-2.629-0.27c-0.319-0.026-0.644-0.037-0.966-0.06
	c-1.739-0.121-3.493-0.197-5.273-0.197c-24.113,0-47.067,9.536-64.634,26.852c-17.272,17.027-27.497,39.703-28.79,63.855
	c-0.414,7.747,0.03,14.945,1.07,21.599c0.593,3.796,1.399,7.395,2.333,10.841c0.97,3.572,2.092,6.953,3.323,10.151
	c0.325,0.842,0.652,1.675,0.99,2.493c1.178,2.849,2.428,5.538,3.717,8.077c0.884,1.74,1.777,3.425,2.68,5.022
	c0.04,0.07,0.079,0.147,0.119,0.217c1.818,3.2,3.644,6.108,5.371,8.729c0.388,0.589,0.795,1.187,1.216,1.79
	c0.207,0.297,0.428,0.603,0.644,0.905c0.213,0.297,0.42,0.593,0.639,0.894c0.312,0.43,0.639,0.866,0.967,1.303
	c0.121,0.161,0.239,0.32,0.361,0.483c0.412,0.545,0.839,1.096,1.273,1.652c0.026,0.032,0.05,0.063,0.075,0.096
	c5.426,6.934,12.501,14.683,20.416,22.656c-6.552,3.47-9.545,4.237-10.388,4.4C204.318,371.314,177.182,355.828,132.127,318.342z
	 M468.238,322.512c-8.952,13.613-34.445,39.074-63.438,63.359c-33.322,27.912-54.244,40.298-60.461,41.999
	c-6.222-1.754-27.201-14.235-60.701-42.206c-15.466-12.914-29.911-26.115-41.39-37.67c-0.072-0.072-0.142-0.144-0.213-0.216
	c-1.598-1.611-3.132-3.185-4.608-4.727c-0.483-0.504-0.966-1.009-1.435-1.506c-0.22-0.233-0.435-0.463-0.652-0.693
	c-0.589-0.628-1.171-1.25-1.736-1.862c-0.098-0.106-0.197-0.213-0.295-0.318c-4.349-4.721-7.96-8.97-10.677-12.577
	c-0.091-0.119-0.178-0.239-0.267-0.358c-0.335-0.448-0.652-0.884-0.957-1.312c-0.095-0.132-0.194-0.269-0.286-0.399
	c-0.371-0.526-0.723-1.039-1.047-1.53c-11.386-17.28-15.843-32.168-14.903-49.781c1.875-35.017,30.911-63.504,64.728-63.504
	c35.083,0,62.043,39.595,62.293,39.966c0.655,0.986,1.421,1.875,2.276,2.655c0.292,0.266,0.606,0.5,0.917,0.74
	c0.145,0.112,0.279,0.24,0.428,0.346c1.368,0.974,2.902,1.695,4.53,2.144c0.046,0.013,0.091,0.033,0.137,0.045
	c0.379,0.101,0.769,0.164,1.157,0.233c0.185,0.033,0.365,0.085,0.553,0.111c0.262,0.036,0.532,0.039,0.796,0.062
	c0.319,0.026,0.637,0.069,0.96,0.073c0,0,0.001,0,0.003,0h0.001c0.007,0,0.016-0.001,0.023-0.001
	c4.75,0.065,9.187-2.204,11.923-6.058c0.003-0.004,0.029-0.039,0.042-0.057s0.026-0.036,0.05-0.07
	c0.03-0.042,0.083-0.112,0.128-0.174c0.034-0.047,0.068-0.091,0.111-0.149c0.065-0.086,0.148-0.197,0.23-0.307
	c0.045-0.059,0.088-0.116,0.137-0.181c0.106-0.141,0.23-0.302,0.361-0.473c0.042-0.053,0.083-0.108,0.126-0.164
	c0.152-0.197,0.319-0.411,0.499-0.641c0.034-0.043,0.07-0.089,0.105-0.134c0.204-0.259,0.421-0.533,0.658-0.828
	c0.01-0.013,0.02-0.026,0.03-0.037c6.765-8.418,26.651-30.816,50.494-36.019c0.142-0.032,0.274-0.088,0.415-0.124
	c2.99-0.616,6.041-0.961,9.131-0.961c33.82,0,62.859,28.488,64.733,63.506C484.086,290.292,479.628,305.184,468.238,322.512z"/>
</svg>